<mxfile host="app.diagrams.net" modified="2024-01-27T06:51:50.710Z" agent="Mozilla/5.0 (Windows NT 10.0; Win64; x64) AppleWebKit/537.36 (KHTML, like Gecko) Chrome/120.0.0.0 Safari/537.36" etag="IrwqG_dyCTz1B5hXDfyY" version="23.0.2" type="device">
  <diagram name="Page-1" id="fF-LVGy_AB0kSaKSR8gm">
    <mxGraphModel dx="1154" dy="572" grid="1" gridSize="10" guides="1" tooltips="1" connect="1" arrows="1" fold="1" page="1" pageScale="1" pageWidth="850" pageHeight="1100" math="0" shadow="0">
      <root>
        <mxCell id="0" />
        <mxCell id="1" parent="0" />
        <mxCell id="G57CHjYFQMVraH2BVnei-1" value="" style="rounded=1;whiteSpace=wrap;html=1;" parent="1" vertex="1">
          <mxGeometry x="40" y="40" width="400" height="400" as="geometry" />
        </mxCell>
        <mxCell id="G57CHjYFQMVraH2BVnei-2" value="Title/Difficulty Form" style="text;html=1;strokeColor=none;fillColor=none;align=center;verticalAlign=middle;whiteSpace=wrap;rounded=0;" parent="1" vertex="1">
          <mxGeometry x="40" width="400" height="30" as="geometry" />
        </mxCell>
        <mxCell id="G57CHjYFQMVraH2BVnei-3" value="&lt;font style=&quot;font-size: 20px;&quot; face=&quot;Garamond&quot;&gt;MINE SWEEPER&lt;/font&gt;" style="text;html=1;strokeColor=none;fillColor=none;align=center;verticalAlign=middle;whiteSpace=wrap;rounded=0;" parent="1" vertex="1">
          <mxGeometry x="40" y="80" width="400" height="30" as="geometry" />
        </mxCell>
        <mxCell id="G57CHjYFQMVraH2BVnei-4" value="Select Difficulty" style="text;html=1;strokeColor=none;fillColor=none;align=center;verticalAlign=middle;whiteSpace=wrap;rounded=0;" parent="1" vertex="1">
          <mxGeometry x="40" y="170" width="400" height="30" as="geometry" />
        </mxCell>
        <mxCell id="G57CHjYFQMVraH2BVnei-6" value="&lt;ul&gt;&lt;li&gt;Easy&lt;/li&gt;&lt;li&gt;Moderate&lt;/li&gt;&lt;li&gt;Hard&lt;/li&gt;&lt;li&gt;Nightmare&lt;/li&gt;&lt;/ul&gt;" style="text;strokeColor=none;fillColor=none;html=1;whiteSpace=wrap;verticalAlign=middle;overflow=hidden;" parent="1" vertex="1">
          <mxGeometry x="180" y="190" width="100" height="80" as="geometry" />
        </mxCell>
        <mxCell id="G57CHjYFQMVraH2BVnei-7" value="START" style="rounded=1;whiteSpace=wrap;html=1;strokeWidth=2;fillWeight=4;hachureGap=8;hachureAngle=45;fillColor=#1ba1e2;sketch=1;" parent="1" vertex="1">
          <mxGeometry x="180" y="300" width="120" height="60" as="geometry" />
        </mxCell>
        <mxCell id="IF8InH4XAeLjyrs7nwJa-1" value="" style="rounded=1;whiteSpace=wrap;html=1;" vertex="1" parent="1">
          <mxGeometry x="480" y="40" width="400" height="400" as="geometry" />
        </mxCell>
        <mxCell id="IF8InH4XAeLjyrs7nwJa-2" value="Game Form" style="text;html=1;strokeColor=none;fillColor=none;align=center;verticalAlign=middle;whiteSpace=wrap;rounded=0;" vertex="1" parent="1">
          <mxGeometry x="480" width="400" height="30" as="geometry" />
        </mxCell>
        <mxCell id="IF8InH4XAeLjyrs7nwJa-4" value="" style="rounded=0;whiteSpace=wrap;html=1;fontSize=16;" vertex="1" parent="1">
          <mxGeometry x="530" y="80" width="300" height="330" as="geometry" />
        </mxCell>
        <mxCell id="IF8InH4XAeLjyrs7nwJa-5" value="" style="rounded=0;whiteSpace=wrap;html=1;fontSize=16;" vertex="1" parent="1">
          <mxGeometry x="545" y="90" width="30" height="30" as="geometry" />
        </mxCell>
        <mxCell id="IF8InH4XAeLjyrs7nwJa-6" value="" style="rounded=0;whiteSpace=wrap;html=1;fontSize=16;" vertex="1" parent="1">
          <mxGeometry x="585" y="90" width="30" height="30" as="geometry" />
        </mxCell>
        <mxCell id="IF8InH4XAeLjyrs7nwJa-7" value="" style="rounded=0;whiteSpace=wrap;html=1;fontSize=16;" vertex="1" parent="1">
          <mxGeometry x="625" y="90" width="30" height="30" as="geometry" />
        </mxCell>
        <mxCell id="IF8InH4XAeLjyrs7nwJa-8" value="" style="rounded=0;whiteSpace=wrap;html=1;fontSize=16;" vertex="1" parent="1">
          <mxGeometry x="665" y="90" width="30" height="30" as="geometry" />
        </mxCell>
        <mxCell id="IF8InH4XAeLjyrs7nwJa-9" value="" style="rounded=0;whiteSpace=wrap;html=1;fontSize=16;" vertex="1" parent="1">
          <mxGeometry x="705" y="90" width="30" height="30" as="geometry" />
        </mxCell>
        <mxCell id="IF8InH4XAeLjyrs7nwJa-10" value="" style="rounded=0;whiteSpace=wrap;html=1;fontSize=16;" vertex="1" parent="1">
          <mxGeometry x="745" y="90" width="30" height="30" as="geometry" />
        </mxCell>
        <mxCell id="IF8InH4XAeLjyrs7nwJa-11" value="" style="rounded=0;whiteSpace=wrap;html=1;fontSize=16;" vertex="1" parent="1">
          <mxGeometry x="785" y="90" width="30" height="30" as="geometry" />
        </mxCell>
        <mxCell id="IF8InH4XAeLjyrs7nwJa-13" value="" style="rounded=0;whiteSpace=wrap;html=1;fontSize=16;" vertex="1" parent="1">
          <mxGeometry x="545" y="130" width="30" height="30" as="geometry" />
        </mxCell>
        <mxCell id="IF8InH4XAeLjyrs7nwJa-14" value="" style="rounded=0;whiteSpace=wrap;html=1;fontSize=16;" vertex="1" parent="1">
          <mxGeometry x="585" y="130" width="30" height="30" as="geometry" />
        </mxCell>
        <mxCell id="IF8InH4XAeLjyrs7nwJa-15" value="" style="rounded=0;whiteSpace=wrap;html=1;fontSize=16;" vertex="1" parent="1">
          <mxGeometry x="625" y="130" width="30" height="30" as="geometry" />
        </mxCell>
        <mxCell id="IF8InH4XAeLjyrs7nwJa-16" value="" style="rounded=0;whiteSpace=wrap;html=1;fontSize=16;" vertex="1" parent="1">
          <mxGeometry x="665" y="130" width="30" height="30" as="geometry" />
        </mxCell>
        <mxCell id="IF8InH4XAeLjyrs7nwJa-17" value="" style="rounded=0;whiteSpace=wrap;html=1;fontSize=16;" vertex="1" parent="1">
          <mxGeometry x="705" y="130" width="30" height="30" as="geometry" />
        </mxCell>
        <mxCell id="IF8InH4XAeLjyrs7nwJa-18" value="" style="rounded=0;whiteSpace=wrap;html=1;fontSize=16;" vertex="1" parent="1">
          <mxGeometry x="745" y="130" width="30" height="30" as="geometry" />
        </mxCell>
        <mxCell id="IF8InH4XAeLjyrs7nwJa-19" value="" style="rounded=0;whiteSpace=wrap;html=1;fontSize=16;" vertex="1" parent="1">
          <mxGeometry x="785" y="130" width="30" height="30" as="geometry" />
        </mxCell>
        <mxCell id="IF8InH4XAeLjyrs7nwJa-20" value="" style="rounded=0;whiteSpace=wrap;html=1;fontSize=16;" vertex="1" parent="1">
          <mxGeometry x="545" y="170" width="30" height="30" as="geometry" />
        </mxCell>
        <mxCell id="IF8InH4XAeLjyrs7nwJa-21" value="" style="rounded=0;whiteSpace=wrap;html=1;fontSize=16;" vertex="1" parent="1">
          <mxGeometry x="585" y="170" width="30" height="30" as="geometry" />
        </mxCell>
        <mxCell id="IF8InH4XAeLjyrs7nwJa-22" value="" style="rounded=0;whiteSpace=wrap;html=1;fontSize=16;" vertex="1" parent="1">
          <mxGeometry x="625" y="170" width="30" height="30" as="geometry" />
        </mxCell>
        <mxCell id="IF8InH4XAeLjyrs7nwJa-23" value="" style="rounded=0;whiteSpace=wrap;html=1;fontSize=16;" vertex="1" parent="1">
          <mxGeometry x="665" y="170" width="30" height="30" as="geometry" />
        </mxCell>
        <mxCell id="IF8InH4XAeLjyrs7nwJa-24" value="" style="rounded=0;whiteSpace=wrap;html=1;fontSize=16;" vertex="1" parent="1">
          <mxGeometry x="705" y="170" width="30" height="30" as="geometry" />
        </mxCell>
        <mxCell id="IF8InH4XAeLjyrs7nwJa-25" value="" style="rounded=0;whiteSpace=wrap;html=1;fontSize=16;" vertex="1" parent="1">
          <mxGeometry x="745" y="170" width="30" height="30" as="geometry" />
        </mxCell>
        <mxCell id="IF8InH4XAeLjyrs7nwJa-26" value="" style="rounded=0;whiteSpace=wrap;html=1;fontSize=16;" vertex="1" parent="1">
          <mxGeometry x="785" y="170" width="30" height="30" as="geometry" />
        </mxCell>
        <mxCell id="IF8InH4XAeLjyrs7nwJa-27" value="" style="rounded=0;whiteSpace=wrap;html=1;fontSize=16;" vertex="1" parent="1">
          <mxGeometry x="545" y="210" width="30" height="30" as="geometry" />
        </mxCell>
        <mxCell id="IF8InH4XAeLjyrs7nwJa-28" value="" style="rounded=0;whiteSpace=wrap;html=1;fontSize=16;" vertex="1" parent="1">
          <mxGeometry x="585" y="210" width="30" height="30" as="geometry" />
        </mxCell>
        <mxCell id="IF8InH4XAeLjyrs7nwJa-29" value="" style="rounded=0;whiteSpace=wrap;html=1;fontSize=16;" vertex="1" parent="1">
          <mxGeometry x="625" y="210" width="30" height="30" as="geometry" />
        </mxCell>
        <mxCell id="IF8InH4XAeLjyrs7nwJa-30" value="" style="rounded=0;whiteSpace=wrap;html=1;fontSize=16;" vertex="1" parent="1">
          <mxGeometry x="665" y="210" width="30" height="30" as="geometry" />
        </mxCell>
        <mxCell id="IF8InH4XAeLjyrs7nwJa-31" value="" style="rounded=0;whiteSpace=wrap;html=1;fontSize=16;" vertex="1" parent="1">
          <mxGeometry x="705" y="210" width="30" height="30" as="geometry" />
        </mxCell>
        <mxCell id="IF8InH4XAeLjyrs7nwJa-32" value="" style="rounded=0;whiteSpace=wrap;html=1;fontSize=16;" vertex="1" parent="1">
          <mxGeometry x="745" y="210" width="30" height="30" as="geometry" />
        </mxCell>
        <mxCell id="IF8InH4XAeLjyrs7nwJa-33" value="" style="rounded=0;whiteSpace=wrap;html=1;fontSize=16;" vertex="1" parent="1">
          <mxGeometry x="785" y="210" width="30" height="30" as="geometry" />
        </mxCell>
        <mxCell id="IF8InH4XAeLjyrs7nwJa-34" value="" style="rounded=0;whiteSpace=wrap;html=1;fontSize=16;" vertex="1" parent="1">
          <mxGeometry x="545" y="250" width="30" height="30" as="geometry" />
        </mxCell>
        <mxCell id="IF8InH4XAeLjyrs7nwJa-35" value="" style="rounded=0;whiteSpace=wrap;html=1;fontSize=16;" vertex="1" parent="1">
          <mxGeometry x="585" y="250" width="30" height="30" as="geometry" />
        </mxCell>
        <mxCell id="IF8InH4XAeLjyrs7nwJa-36" value="" style="rounded=0;whiteSpace=wrap;html=1;fontSize=16;" vertex="1" parent="1">
          <mxGeometry x="625" y="250" width="30" height="30" as="geometry" />
        </mxCell>
        <mxCell id="IF8InH4XAeLjyrs7nwJa-37" value="" style="rounded=0;whiteSpace=wrap;html=1;fontSize=16;" vertex="1" parent="1">
          <mxGeometry x="665" y="250" width="30" height="30" as="geometry" />
        </mxCell>
        <mxCell id="IF8InH4XAeLjyrs7nwJa-38" value="" style="rounded=0;whiteSpace=wrap;html=1;fontSize=16;" vertex="1" parent="1">
          <mxGeometry x="705" y="250" width="30" height="30" as="geometry" />
        </mxCell>
        <mxCell id="IF8InH4XAeLjyrs7nwJa-39" value="" style="rounded=0;whiteSpace=wrap;html=1;fontSize=16;" vertex="1" parent="1">
          <mxGeometry x="745" y="250" width="30" height="30" as="geometry" />
        </mxCell>
        <mxCell id="IF8InH4XAeLjyrs7nwJa-40" value="" style="rounded=0;whiteSpace=wrap;html=1;fontSize=16;" vertex="1" parent="1">
          <mxGeometry x="785" y="250" width="30" height="30" as="geometry" />
        </mxCell>
        <mxCell id="IF8InH4XAeLjyrs7nwJa-41" value="" style="rounded=0;whiteSpace=wrap;html=1;fontSize=16;" vertex="1" parent="1">
          <mxGeometry x="545" y="290" width="30" height="30" as="geometry" />
        </mxCell>
        <mxCell id="IF8InH4XAeLjyrs7nwJa-42" value="" style="rounded=0;whiteSpace=wrap;html=1;fontSize=16;" vertex="1" parent="1">
          <mxGeometry x="585" y="290" width="30" height="30" as="geometry" />
        </mxCell>
        <mxCell id="IF8InH4XAeLjyrs7nwJa-43" value="" style="rounded=0;whiteSpace=wrap;html=1;fontSize=16;" vertex="1" parent="1">
          <mxGeometry x="625" y="290" width="30" height="30" as="geometry" />
        </mxCell>
        <mxCell id="IF8InH4XAeLjyrs7nwJa-44" value="" style="rounded=0;whiteSpace=wrap;html=1;fontSize=16;" vertex="1" parent="1">
          <mxGeometry x="665" y="290" width="30" height="30" as="geometry" />
        </mxCell>
        <mxCell id="IF8InH4XAeLjyrs7nwJa-45" value="" style="rounded=0;whiteSpace=wrap;html=1;fontSize=16;" vertex="1" parent="1">
          <mxGeometry x="705" y="290" width="30" height="30" as="geometry" />
        </mxCell>
        <mxCell id="IF8InH4XAeLjyrs7nwJa-46" value="" style="rounded=0;whiteSpace=wrap;html=1;fontSize=16;" vertex="1" parent="1">
          <mxGeometry x="745" y="290" width="30" height="30" as="geometry" />
        </mxCell>
        <mxCell id="IF8InH4XAeLjyrs7nwJa-47" value="" style="rounded=0;whiteSpace=wrap;html=1;fontSize=16;" vertex="1" parent="1">
          <mxGeometry x="785" y="290" width="30" height="30" as="geometry" />
        </mxCell>
        <mxCell id="IF8InH4XAeLjyrs7nwJa-48" value="" style="rounded=0;whiteSpace=wrap;html=1;fontSize=16;" vertex="1" parent="1">
          <mxGeometry x="545" y="330" width="30" height="30" as="geometry" />
        </mxCell>
        <mxCell id="IF8InH4XAeLjyrs7nwJa-49" value="" style="rounded=0;whiteSpace=wrap;html=1;fontSize=16;" vertex="1" parent="1">
          <mxGeometry x="585" y="330" width="30" height="30" as="geometry" />
        </mxCell>
        <mxCell id="IF8InH4XAeLjyrs7nwJa-50" value="" style="rounded=0;whiteSpace=wrap;html=1;fontSize=16;" vertex="1" parent="1">
          <mxGeometry x="625" y="330" width="30" height="30" as="geometry" />
        </mxCell>
        <mxCell id="IF8InH4XAeLjyrs7nwJa-51" value="" style="rounded=0;whiteSpace=wrap;html=1;fontSize=16;" vertex="1" parent="1">
          <mxGeometry x="665" y="330" width="30" height="30" as="geometry" />
        </mxCell>
        <mxCell id="IF8InH4XAeLjyrs7nwJa-52" value="" style="rounded=0;whiteSpace=wrap;html=1;fontSize=16;" vertex="1" parent="1">
          <mxGeometry x="705" y="330" width="30" height="30" as="geometry" />
        </mxCell>
        <mxCell id="IF8InH4XAeLjyrs7nwJa-53" value="" style="rounded=0;whiteSpace=wrap;html=1;fontSize=16;" vertex="1" parent="1">
          <mxGeometry x="745" y="330" width="30" height="30" as="geometry" />
        </mxCell>
        <mxCell id="IF8InH4XAeLjyrs7nwJa-54" value="" style="rounded=0;whiteSpace=wrap;html=1;fontSize=16;" vertex="1" parent="1">
          <mxGeometry x="785" y="330" width="30" height="30" as="geometry" />
        </mxCell>
        <mxCell id="IF8InH4XAeLjyrs7nwJa-55" value="" style="rounded=0;whiteSpace=wrap;html=1;fontSize=16;" vertex="1" parent="1">
          <mxGeometry x="545" y="370" width="30" height="30" as="geometry" />
        </mxCell>
        <mxCell id="IF8InH4XAeLjyrs7nwJa-56" value="" style="rounded=0;whiteSpace=wrap;html=1;fontSize=16;" vertex="1" parent="1">
          <mxGeometry x="585" y="370" width="30" height="30" as="geometry" />
        </mxCell>
        <mxCell id="IF8InH4XAeLjyrs7nwJa-57" value="" style="rounded=0;whiteSpace=wrap;html=1;fontSize=16;" vertex="1" parent="1">
          <mxGeometry x="625" y="370" width="30" height="30" as="geometry" />
        </mxCell>
        <mxCell id="IF8InH4XAeLjyrs7nwJa-58" value="" style="rounded=0;whiteSpace=wrap;html=1;fontSize=16;" vertex="1" parent="1">
          <mxGeometry x="665" y="370" width="30" height="30" as="geometry" />
        </mxCell>
        <mxCell id="IF8InH4XAeLjyrs7nwJa-59" value="" style="rounded=0;whiteSpace=wrap;html=1;fontSize=16;" vertex="1" parent="1">
          <mxGeometry x="705" y="370" width="30" height="30" as="geometry" />
        </mxCell>
        <mxCell id="IF8InH4XAeLjyrs7nwJa-60" value="" style="rounded=0;whiteSpace=wrap;html=1;fontSize=16;" vertex="1" parent="1">
          <mxGeometry x="745" y="370" width="30" height="30" as="geometry" />
        </mxCell>
        <mxCell id="IF8InH4XAeLjyrs7nwJa-61" value="" style="rounded=0;whiteSpace=wrap;html=1;fontSize=16;" vertex="1" parent="1">
          <mxGeometry x="785" y="370" width="30" height="30" as="geometry" />
        </mxCell>
      </root>
    </mxGraphModel>
  </diagram>
</mxfile>
